<svg width="186" height="218" viewBox="0 0 186 218" fill="none" xmlns="http://www.w3.org/2000/svg">
<g clip-path="url(#clip0_110_408)">
<path d="M26.419 63.682C26.419 63.682 26.0502 70.6889 12.4891 93.545C-3.21771 120.03 -4.69284 151.033 11.3492 176.915C45.1682 231.478 136.953 230.447 170.982 176.948C184.141 156.255 187.912 132.51 183.42 108.388C183.42 108.388 172.532 58.0245 135.352 26.2674C135.939 26.7619 137.381 33.5005 137.657 36.3753C138.504 45.2094 137.674 54.4708 134.715 62.8774C132.544 69.0545 129.536 74.4018 124.448 78.5255C124.448 77.0839 124.088 74.5024 124.079 73.6391C123.836 56.0465 117.03 39.7531 105.942 26.0746C96.253 14.1395 82.9684 5.99271 68.9798 0C69.3318 1.20692 69.9856 6.21063 70.0778 7.19964C70.7986 15.5056 70.9327 27.139 69.8431 35.4366C68.7535 43.7342 66.8845 48.2518 64.3449 56.0298C60.4978 67.8224 55.2594 76.5642 48.6214 87.0494C47.3977 88.9771 43.7434 94.2658 41.7905 96.9395C41.7905 96.9395 38.4296 75.6842 26.4274 63.682H26.419Z" fill="white"/>
</g>
<defs>
<clipPath id="clip0_110_408">
<rect width="185.238" height="217.456" fill="white"/>
</clipPath>
</defs>
</svg>
